<svg role="img" viewBox="0 0 24 24" fill="#181717" xmlns="http://www.w3.org/2000/svg">
    <title>GitHub</title>
    <path d="M12 0C5.37 0 0 5.37 0 12c0 5.3 3.44 9.8 8.21 11.38.6.11.82-.26.82-.58v-2.02c-3.34.72-4.04-1.43-4.04-1.43-.55-1.4-1.35-1.77-1.35-1.77-1.1-.75.08-.74.08-.74 1.22.09 1.86 1.25 1.86 1.25 1.08 1.84 2.84 1.31 3.53 1 .1-.78.42-1.31.77-1.61-2.67-.3-5.48-1.34-5.48-5.96 0-1.32.47-2.39 1.24-3.23-.12-.3-.54-1.52.12-3.16 0 0 1.01-.32 3.3 1.23.96-.27 1.99-.41 3.01-.41s2.05.14 3.01.41c2.28-1.55 3.29-1.23 3.29-1.23.67 1.64.24 2.86.12 3.16.77.84 1.24 1.91 1.24 3.23 0 4.63-2.81 5.65-5.49 5.94.43.37.82 1.1.82 2.22v3.29c0 .32.22.69.83.57C20.56 21.8 24 17.3 24 12c0-6.63-5.37-12-12-12z"/>
</svg>
