<svg role="img" viewBox="0 0 24 24" fill="#0A66C2" xmlns="http://www.w3.org/2000/svg">
    <title>LinkedIn</title>
    <path d="M22.23 0H1.77C.79 0 0 .8 0 1.78v20.44C0 23.2.79 24 1.77 24h20.46c.98 0 1.77-.8 1.77-1.78V1.78C24 .8 23.21 0 22.23 0zm-14.46 20.44H4.45V9h3.32v11.44zM6.11 7.5c-1.07 0-1.94-.87-1.94-1.94 0-1.07.87-1.94 1.94-1.94 1.07 0 1.94.87 1.94 1.94 0 1.07-.87 1.94-1.94 1.94zM20.44 20.44h-3.32v-5.59c0-1.34-.02-3.07-1.87-3.07s-2.15 1.47-2.15 2.99v5.67h-3.32V9h3.19v1.56h.04c.44-.83 1.52-1.7 3.13-1.7 3.35 0 3.97 2.2 3.97 5.07v6.51z"/>
</svg>
